<svg width="25" height="24" viewBox="0 0 25 24" fill="none" xmlns="http://www.w3.org/2000/svg">
<path d="M22.832 12C22.832 17.7989 18.1309 22.5 12.332 22.5C6.53311 22.5 1.83203 17.7989 1.83203 12C1.83203 6.20108 6.53311 1.5 12.332 1.5C18.1309 1.5 22.832 6.20108 22.832 12Z" fill="#DA3232"/>
<path d="M20.4974 13.1665C20.4974 13.4759 20.3745 13.7727 20.1557 13.9915C19.9369 14.2103 19.6401 14.3332 19.3307 14.3332H5.33073C5.02131 14.3332 4.72456 14.2103 4.50577 13.9915C4.28698 13.7727 4.16406 13.4759 4.16406 13.1665V10.8332C4.16406 10.5238 4.28698 10.227 4.50577 10.0082C4.72456 9.78942 5.02131 9.6665 5.33073 9.6665H19.3307C19.6401 9.6665 19.9369 9.78942 20.1557 10.0082C20.3745 10.227 20.4974 10.5238 20.4974 10.8332V13.1665Z" fill="white"/>
</svg>
