<svg width="24" height="24" viewBox="0 0 24 24" fill="none" xmlns="http://www.w3.org/2000/svg">
<path d="M22.6175 18.5715C22.6175 19.4957 22.0897 20.3408 21.2553 20.7382C19.68 21.4886 16.6784 22.4998 11.9416 22.4998C7.20476 22.4998 4.20314 21.4886 2.62787 20.7382C1.79348 20.3408 1.26562 19.4957 1.26562 18.5715C1.26562 17.2438 2.34193 16.1675 3.66963 16.1675H20.2135C21.5412 16.1675 22.6175 17.2438 22.6175 18.5715Z" fill="#E59328"/>
<path d="M22.5238 14.9093C22.5238 13.9851 21.9959 13.14 21.1615 12.7426C19.5862 11.9922 16.5846 10.981 11.8478 10.981C7.11101 10.981 4.10939 11.9922 2.53412 12.7426C1.69973 13.14 1.17188 13.9851 1.17188 14.9093C1.17188 14.9227 1.17266 14.9358 1.1729 14.9491C1.17266 14.9624 1.17188 14.9756 1.17188 14.9889C1.17188 15.9131 1.69973 16.7582 2.53412 17.1556C4.10939 17.906 7.11101 18.9172 11.8478 18.9172C16.5846 18.9172 19.5862 17.906 21.1615 17.1556C21.9959 16.7582 22.5238 15.9131 22.5238 14.9889C22.5238 14.9755 22.523 14.9624 22.5227 14.9491C22.523 14.9358 22.5238 14.9226 22.5238 14.9093Z" fill="#7A2F18"/>
<path d="M12.0869 17.272C17.5023 17.272 21.8925 15.7766 21.8925 13.9319C21.8925 12.0872 17.5023 10.5918 12.0869 10.5918C6.67137 10.5918 2.28125 12.0872 2.28125 13.9319C2.28125 15.7766 6.67137 17.272 12.0869 17.272Z" fill="#DA3232"/>
<path d="M12.0869 16.0005C17.5023 16.0005 21.8925 14.5051 21.8925 12.6604C21.8925 10.8157 17.5023 9.32031 12.0869 9.32031C6.67137 9.32031 2.28125 10.8157 2.28125 12.6604C2.28125 14.5051 6.67137 16.0005 12.0869 16.0005Z" fill="#F94435"/>
<path d="M22.7142 10.5563C21.5934 9.93412 19.9553 9.68932 18.5153 9.68997C17.7298 9.69034 16.9301 9.7723 16.1804 9.92558C15.5964 10.045 15.0257 10.196 14.4251 10.2738C14.3244 10.2779 14.2236 10.2789 14.1229 10.2766C14.0538 10.2659 13.9851 10.2532 13.9168 10.2386C13.6678 10.155 13.4313 10.0571 13.19 9.96352C12.8033 9.81367 12.3983 9.69651 11.9818 9.58598C11.249 9.3916 10.4773 9.29893 9.69185 9.2526C8.20869 9.16508 6.67966 9.38863 5.36096 9.83778C5.1498 9.85521 4.94148 9.89783 4.74043 9.96473C3.39433 10.4136 2.25429 11.1302 1.45362 11.967C1.28359 12.1448 1.13304 12.3306 1.00382 12.5226C0.722155 12.9411 0.469473 13.3715 0.719326 13.8343C1.18712 14.7008 2.58517 15.017 3.87126 14.8136C4.75834 14.6734 5.45006 14.2891 6.14572 13.9256C6.32011 13.8429 6.50063 13.7675 6.69102 13.7029C6.71217 13.6984 6.73327 14.4828 6.75456 14.4787C6.93294 14.5858 7.10093 14.7001 7.28325 14.8046C7.59382 14.9826 7.92609 15.154 8.27942 15.2946C9.003 15.5824 9.86842 15.7668 10.7198 15.7616C11.5897 15.7563 12.4205 15.574 13.1069 15.2259C13.4725 15.0404 13.7725 14.8216 14.0042 14.5552C14.0891 14.4577 14.1623 14.3567 14.2426 14.2584C14.3082 14.2697 14.8048 13.6451 14.9779 13.7275C15.4115 13.9556 15.8347 14.1954 16.3046 14.39C16.9543 14.659 17.7189 14.8205 18.49 14.8219C19.9748 14.8246 21.3755 14.262 22.4064 13.5992C22.9383 13.2571 23.4358 12.8031 23.5821 12.3143C23.7758 11.6668 23.4995 10.9922 22.7142 10.5563ZM7.50991 11.5701C7.82004 11.5035 8.13328 11.4524 8.44847 11.4169C8.8833 11.3896 9.3194 11.3896 9.75423 11.4169C10.1625 11.463 10.5615 11.5334 10.9495 11.6287C11.2571 11.7259 11.5462 12.6317 11.8407 12.7437C11.5424 12.9747 11.3743 13.2504 11.1286 13.5052C11.1161 13.5137 11.1032 13.5219 11.0904 13.5301C11.0585 13.5428 11.0264 13.555 10.994 13.5666C10.9336 13.5788 10.8729 13.5896 10.812 13.5988C10.7339 13.6009 10.6558 13.6008 10.5777 13.5986C10.4613 13.5813 10.3455 13.5596 10.2306 13.5337C10.0461 13.4727 9.8651 13.4015 9.68846 13.3205C9.36468 13.139 9.07178 12.936 8.73371 12.7645C8.36861 12.5794 7.9541 11.6445 7.50991 11.5701ZM19.691 12.298C19.4549 12.4092 19.2089 12.5093 18.9486 12.5937C18.833 12.6199 18.7165 12.6417 18.5993 12.6591C18.5389 12.6606 18.4784 12.6607 18.418 12.6594C18.358 12.65 18.2983 12.639 18.2389 12.6266C18.032 12.5561 17.8374 12.4724 17.6489 12.3819C17.4264 12.264 17.2065 12.1423 16.981 12.0259C17.2891 11.963 17.5997 11.9078 17.9188 11.8699C18.3247 11.845 18.7318 11.8453 19.1378 11.8706C19.4704 11.9088 19.8006 11.965 20.1271 12.0391C19.9894 12.1306 19.8428 12.2161 19.691 12.298Z" fill="#2FA455"/>
<path d="M5.46535 15.5253C4.84287 14.5184 3.6463 12.6623 2.15131 10.7301C0.00324023 11.0946 17.1229 8.20898 17.1229 8.20898C21.9036 8.71254 22.5351 11.0778 22.5375 12.2837C22.5383 12.6696 22.2072 12.9733 21.8222 12.9461C11.5805 12.2209 7.74579 14.5071 6.48275 15.6687C6.17502 15.9516 5.68519 15.8809 5.46535 15.5253Z" fill="#FECB21"/>
<path d="M11.8478 1.3125C6.13395 1.3125 1.17188 4.92128 1.17188 9.26817C1.17188 11.5859 5.95163 13.4647 11.8478 13.4647C17.744 13.4647 22.5238 11.5859 22.5238 9.26817C22.5238 5.04424 17.5617 1.3125 11.8478 1.3125Z" fill="#E59328"/>
<path d="M5.15559 6.30831L5.60368 7.2792C5.62907 7.33422 5.63157 7.39709 5.61061 7.45395C5.58966 7.51082 5.54697 7.55704 5.49195 7.58243C5.45995 7.59704 5.42503 7.60413 5.38986 7.60315C5.3547 7.60218 5.32022 7.59317 5.28908 7.57682L4.34449 7.07577C4.05702 6.92327 3.94756 6.5666 4.10006 6.27914C4.25256 5.99167 4.60923 5.88221 4.8967 6.03471C5.0107 6.095 5.10168 6.19115 5.15559 6.30831ZM14.6011 2.87252C14.3136 2.72003 13.9569 2.82948 13.8044 3.11695C13.6519 3.40442 13.7614 3.76109 14.0488 3.91358L14.9934 4.41463C15.0246 4.43099 15.0591 4.44 15.0942 4.44097C15.1294 4.44194 15.1643 4.43485 15.1963 4.42025C15.2513 4.39485 15.294 4.34864 15.315 4.29177C15.3359 4.2349 15.3334 4.17204 15.308 4.11701L14.86 3.14612C14.806 3.02899 14.715 2.93285 14.6011 2.87252ZM9.28584 4.0665C9.0992 3.79991 8.73177 3.73511 8.46518 3.92179C8.19858 4.10848 8.13379 4.47586 8.32047 4.74245L8.93376 5.61835C8.95406 5.64708 8.98066 5.67078 9.01153 5.68763C9.0424 5.70449 9.07672 5.71406 9.11186 5.71561C9.17242 5.718 9.23144 5.69624 9.27597 5.65514C9.3205 5.61403 9.34688 5.55692 9.34933 5.49637L9.39195 4.42795C9.3972 4.29908 9.35991 4.17207 9.28584 4.0665ZM20.1163 6.67138C20.2573 6.36373 20.1222 6.00006 19.8146 5.85911C19.5069 5.71812 19.1433 5.85322 19.0023 6.16082L18.6566 6.91515C18.6376 6.95671 18.6309 7.00286 18.6374 7.0481C18.644 7.09333 18.6634 7.13572 18.6934 7.17018C18.7235 7.20464 18.7628 7.22972 18.8067 7.24241C18.8506 7.2551 18.8972 7.25486 18.941 7.24172L19.7357 7.00286C19.8973 6.95346 20.0403 6.8371 20.1163 6.67138ZM11.3755 9.15984C11.0556 9.10015 10.7479 9.31104 10.6882 9.63093C10.6285 9.95081 10.8394 10.2585 11.1592 10.3183L12.2104 10.5145C12.245 10.5208 12.2806 10.5191 12.3144 10.5095C12.3482 10.5 12.3794 10.4828 12.4056 10.4593C12.4279 10.4392 12.446 10.4148 12.4588 10.3877C12.4717 10.3606 12.479 10.3312 12.4805 10.3012C12.482 10.2713 12.4776 10.2413 12.4675 10.213C12.4574 10.1848 12.4419 10.1588 12.4217 10.1365L11.7043 9.34369C11.6178 9.24797 11.5023 9.18336 11.3755 9.15984ZM17.0409 10.0529C17.1712 10.3511 17.5185 10.4872 17.8168 10.3569C18.115 10.2266 18.2511 9.87929 18.1208 9.58107L17.6927 8.60123C17.6785 8.56905 17.6571 8.54056 17.6302 8.51793C17.6033 8.4953 17.5715 8.47913 17.5374 8.47067C17.5082 8.46357 17.4779 8.46228 17.4483 8.46688C17.4186 8.47148 17.3902 8.48187 17.3645 8.49747C17.3389 8.51307 17.3166 8.53357 17.2989 8.5578C17.2811 8.58202 17.2684 8.6095 17.2613 8.63866L17.0083 9.67758C16.9777 9.80286 16.9892 9.93472 17.0409 10.0529ZM8.19014 9.76005C8.22752 9.43307 7.99274 9.13771 7.66576 9.10033C7.33878 9.06295 7.04343 9.29773 7.00604 9.62471L6.88327 10.6991C6.88022 10.7265 6.88306 10.7543 6.89161 10.7805C6.90015 10.8068 6.9142 10.8309 6.93281 10.8512C6.96737 10.8889 7.01544 10.9112 7.06647 10.9134C7.1175 10.9155 7.1673 10.8973 7.20492 10.8628L8.00123 10.1312C8.10682 10.0343 8.1739 9.90248 8.19014 9.76005ZM13.5906 7.81874C13.8961 7.93094 14.2347 7.77426 14.3468 7.4688C14.459 7.16334 14.3024 6.82476 13.9969 6.71256L12.9932 6.34393C12.9601 6.33194 12.9247 6.32768 12.8898 6.33148C12.8548 6.33527 12.8212 6.34702 12.7914 6.36582C12.7403 6.39843 12.7043 6.45 12.6912 6.50918C12.6782 6.56836 12.6892 6.63031 12.7218 6.6814L13.2971 7.58271C13.3663 7.69149 13.4695 7.77443 13.5906 7.81874Z" fill="#FFCD7D"/>
</svg>
