<svg width="16" height="16" viewBox="0 0 16 16" fill="none" xmlns="http://www.w3.org/2000/svg">
<g clip-path="url(#clip0_2851_40924)">
<path d="M-0.0507812 4.74074C-0.0507812 2.1225 2.07172 0 4.68996 0H11.2085C13.8267 0 15.9492 2.1225 15.9492 4.74074V11.2593C15.9492 13.8775 13.8267 16 11.2085 16H4.68996C2.07172 16 -0.0507812 13.8775 -0.0507812 11.2593V4.74074Z" fill="white"/>
<path d="M12.7229 7.99078C12.7229 11.2581 10.0729 13.9065 6.80718 13.9065C3.54142 13.9065 0.890625 11.2581 0.890625 7.99078C0.890625 4.72342 3.53903 2.07422 6.80718 2.07422C10.0753 2.07422 12.7229 4.72302 12.7229 7.99078Z" fill="#002761"/>
<path d="M8.00933 6.20889C7.12334 6.20889 6.48047 6.92709 6.48047 7.91631V7.95576C6.48047 8.97089 7.09265 9.65321 8.00415 9.65321C8.51031 9.65321 8.88974 9.44596 9.12528 9.26462V7.80272H7.98023V8.17816H8.71039V9.04263L8.68289 9.06215C8.50673 9.1865 8.26839 9.25785 8.02886 9.25785C7.38081 9.25785 6.94518 8.72856 6.94518 7.94062V7.91073C6.94518 7.15905 7.38878 6.61383 7.99936 6.61383C8.35527 6.61383 8.57807 6.74415 8.75861 6.896L9.02126 6.54607C8.72195 6.31013 8.41586 6.2085 8.00933 6.2085V6.20889Z" fill="white"/>
<path d="M9.75 9.20454C10.0884 9.49867 10.4806 9.64773 10.9162 9.64773C11.5511 9.64773 11.9771 9.2707 11.9771 8.71033C11.9771 8.25199 11.7332 7.99134 11.076 7.73865C10.4774 7.50709 10.3136 7.36481 10.3136 7.07665C10.3136 6.78849 10.5487 6.60396 10.8855 6.60396C11.1338 6.60396 11.3917 6.7048 11.6527 6.90368L11.9034 6.5653C11.6176 6.33175 11.2801 6.21338 10.9006 6.21338C10.2904 6.21338 9.86399 6.58643 9.86399 7.12089C9.86399 7.65535 10.2016 7.88333 10.8245 8.11728C11.3606 8.31496 11.5327 8.46761 11.5327 8.74461C11.5327 9.04831 11.2809 9.25715 10.921 9.25715C10.526 9.25715 10.2323 9.06106 10.0154 8.87374L9.75 9.20454Z" fill="white"/>
<path d="M13.1658 9.63584H15.2459V9.22453H14.501V6.20068H14.1427L13.1562 6.59525L13.2471 7.03127L14.0112 6.72518V9.22453H13.1662V9.63584H13.1658Z" fill="#002761"/>
<path d="M11.332 3.11145V3.10786C11.332 2.7922 11.5879 2.52637 11.9103 2.52637C12.2328 2.52637 12.4886 2.78902 12.4886 3.10467V3.10786C12.4886 3.42391 12.2332 3.68935 11.9103 3.68935C11.5875 3.68935 11.332 3.4267 11.332 3.11105V3.11145ZM12.3643 3.10786V3.10467C12.3643 2.85438 12.1694 2.64833 11.9103 2.64833C11.6513 2.64833 11.4564 2.85757 11.4564 3.10786V3.11065C11.4564 3.36174 11.6509 3.56779 11.9103 3.56779C12.1698 3.56779 12.3643 3.35895 12.3643 3.10826V3.10786ZM11.6863 2.81652H11.9502C12.0801 2.81652 12.1766 2.8755 12.1766 3.00264C12.1766 3.09232 12.1268 3.1517 12.0522 3.17681L12.1949 3.37848H12.0307L11.9095 3.20152H11.8227V3.37848H11.6859V2.81691L11.6863 2.81652ZM11.941 3.08913C12.0032 3.08913 12.0371 3.05844 12.0371 3.01181C12.0371 2.96239 11.9996 2.93449 11.941 2.93449H11.8231V3.08913H11.941Z" fill="#002761"/>
<path d="M2.09506 7.99061C2.09506 5.29199 4.17154 3.07921 6.81396 2.8616L6.80559 2.84326H6.804C3.9607 2.84326 1.65625 5.14811 1.65625 7.99101C1.65625 10.8339 3.9607 13.1376 6.804 13.1376H6.80559L6.81396 13.1192C4.17154 12.9016 2.09506 10.6892 2.09506 7.99141V7.99061Z" fill="white"/>
<path d="M3.24582 7.99076C3.24582 5.72497 4.96758 3.86212 7.17478 3.63813L7.16442 3.61621C4.78384 3.65766 2.86719 5.59982 2.86719 7.99076C2.86719 10.3817 4.78384 12.3223 7.16442 12.3641L7.17478 12.3418C4.96758 12.1182 3.24582 10.2561 3.24582 7.99076Z" fill="white"/>
<path d="M4.3473 7.99023C4.3473 6.14053 5.73906 4.61725 7.53256 4.40682L7.5214 4.3833C5.57406 4.43631 4.01172 6.03053 4.01172 7.99023C4.01172 9.94993 5.57406 11.5434 7.5214 11.5968L7.53256 11.5728C5.73906 11.3624 4.3473 9.83953 4.3473 7.98983V7.99023Z" fill="white"/>
<path d="M5.40638 7.99043C5.40638 6.54327 6.49125 5.3504 7.89217 5.17902L7.88301 5.15869C6.35255 5.19895 5.125 6.45081 5.125 7.99043C5.125 9.53005 6.35295 10.7815 7.88301 10.8218L7.89217 10.8014C6.49125 10.6301 5.40638 9.43759 5.40638 7.99043Z" fill="white"/>
</g>
<defs>
<clipPath id="clip0_2851_40924">
<rect width="16" height="16" fill="white"/>
</clipPath>
</defs>
</svg>
