<svg width="25" height="24" viewBox="0 0 25 24" fill="none" xmlns="http://www.w3.org/2000/svg">
<path d="M2.16406 21.3162V8.05273H23.1645V21.3162C23.1645 22.532 22.1698 23.5268 20.954 23.5268H4.37464C3.15882 23.5268 2.16406 22.532 2.16406 21.3162Z" fill="#D4DAE1"/>
<path d="M23.1645 5.84192V9.15779H2.16406V5.84192C2.16406 4.62611 3.15882 3.63135 4.37464 3.63135H20.954C22.1698 3.63135 23.1645 4.62611 23.1645 5.84192Z" fill="#DA3232"/>
<path d="M17.6345 7.49995C18.5501 7.49995 19.2924 6.75767 19.2924 5.84202C19.2924 4.92636 18.5501 4.18408 17.6345 4.18408C16.7188 4.18408 15.9766 4.92636 15.9766 5.84202C15.9766 6.75767 16.7188 7.49995 17.6345 7.49995Z" fill="#8B1016"/>
<path d="M7.68918 7.49995C8.60483 7.49995 9.34712 6.75767 9.34712 5.84201C9.34712 4.92636 8.60483 4.18408 7.68918 4.18408C6.77353 4.18408 6.03125 4.92636 6.03125 5.84201C6.03125 6.75767 6.77353 7.49995 7.68918 7.49995Z" fill="#8B1016"/>
<path d="M17.6388 1.97363C17.0309 1.97363 16.5335 2.47101 16.5335 3.07892V5.84214C16.5335 6.45005 17.0309 6.94743 17.6388 6.94743C18.2467 6.94743 18.7441 6.45005 18.7441 5.84214V3.07892C18.7441 2.47101 18.2467 1.97363 17.6388 1.97363ZM7.69123 1.97363C7.08332 1.97363 6.58594 2.47101 6.58594 3.07892V5.84214C6.58594 6.45005 7.08332 6.94743 7.69123 6.94743C8.29914 6.94743 8.79651 6.45005 8.79651 5.84214V3.07892C8.79651 2.47101 8.29914 1.97363 7.69123 1.97363Z" fill="#D4DAE1"/>
<path d="M6.58594 11.3682H8.79651V13.5787H6.58594V11.3682ZM9.9018 11.3682H12.1124V13.5787H9.9018V11.3682ZM13.2177 11.3682H15.4282V13.5787H13.2177V11.3682ZM16.5335 11.3682H18.7441V13.5787H16.5335V11.3682ZM6.58594 14.684H8.79651V16.8946H6.58594V14.684ZM9.9018 14.684H12.1124V16.8946H9.9018V14.684ZM13.2177 14.684H15.4282V16.8946H13.2177V14.684ZM16.5335 14.684H18.7441V16.8946H16.5335V14.684ZM6.58594 17.9999H8.79651V20.2105H6.58594V17.9999ZM9.9018 17.9999H12.1124V20.2105H9.9018V17.9999ZM13.2177 17.9999H15.4282V20.2105H13.2177V17.9999ZM16.5335 17.9999H18.7441V20.2105H16.5335V17.9999Z" fill="#788697"/>
</svg>
